<svg width="282" height="140" viewBox="0 0 282 140" fill="none" xmlns="http://www.w3.org/2000/svg">
<path d="M86.4 82C93.9333 82 99.5667 80.4 103.3 77.2C107.1 73.9333 109 68.8333 109 61.9C109 54.3 107.667 48.9333 105 45.8C102.4 42.6 98.3667 41 92.9 41H83.7V95C83.7 99.4667 84.0667 103 84.8 105.6C85.5333 108.2 87.0667 109.5 89.4 109.5V110H62V109.5C64.3333 109.5 65.8667 108.2 66.6 105.6C67.3333 103 67.7 99.4667 67.7 95V55C67.7 50.5333 67.3333 47 66.6 44.4C65.8667 41.8 64.3333 40.5 62 40.5V40H83.7H92.9C104.033 40 112.233 41.9333 117.5 45.8C122.833 49.6667 125.5 55.0333 125.5 61.9C125.5 68.4333 122.267 73.6 115.8 77.4C109.4 81.1333 99.6 83 86.4 83V82ZM156.466 111.6C150.333 111.6 145.166 110.433 140.966 108.1C136.833 105.767 133.733 102.6 131.666 98.6C129.6 94.5333 128.566 89.9667 128.566 84.9C128.566 79.8333 129.6 75.3 131.666 71.3C133.733 67.3 136.833 64.1333 140.966 61.8C145.166 59.4667 150.333 58.3 156.466 58.3C162.6 58.3 167.733 59.4667 171.866 61.8C176.066 64.1333 179.166 67.3 181.166 71.3C183.233 75.3 184.266 79.8333 184.266 84.9C184.266 89.9667 183.233 94.5333 181.166 98.6C179.166 102.6 176.066 105.767 171.866 108.1C167.733 110.433 162.6 111.6 156.466 111.6ZM156.466 110.6C160.466 110.6 163.333 108.5 165.066 104.3C166.866 100.033 167.766 93.5667 167.766 84.9C167.766 76.3 166.866 69.9 165.066 65.7C163.333 61.4333 160.466 59.3 156.466 59.3C152.4 59.3 149.466 61.4333 147.666 65.7C145.933 69.9 145.066 76.3 145.066 84.9C145.066 93.5 145.933 99.9333 147.666 104.2C149.466 108.467 152.4 110.6 156.466 110.6ZM213.734 40C218.068 40 221.468 40.2667 223.934 40.8C226.401 41.3333 228.401 42.4333 229.934 44.1C231.534 45.7 232.834 48.1333 233.834 51.4L236.034 58.6C238.501 52.5333 241.701 47.9333 245.634 44.8C249.634 41.6 255.068 40 261.934 40H278.734V40.5C276.801 40.5 274.901 41.8667 273.034 44.6C271.168 47.2667 269.468 51.1333 267.934 56.2L251.634 110H234.634L227.734 87.3L220.934 110H203.934L186.734 53.4C185.268 49.2667 183.668 46.1 181.934 43.9C180.201 41.6333 178.468 40.5 176.734 40.5V40H213.734ZM220.334 108.2L227.134 85.5L217.434 53.4C214.368 44.8667 210.834 40.5667 206.834 40.5C204.034 40.5667 202.634 42.4333 202.634 46.1C202.634 48.7667 203.268 52.1333 204.534 56.2L220.334 108.2ZM251.134 108.2L267.434 54.5C268.301 51.2333 268.734 48.7333 268.734 47C268.734 44.9333 268.201 43.4333 267.134 42.5C266.068 41.5 264.334 41 261.934 41C255.001 41 249.601 42.6333 245.734 45.9C241.934 49.1667 238.868 53.9333 236.534 60.2L251.134 108.2Z" fill="#283618"/>
<path d="M25.5 27L51 53.0822C30.3295 78.9914 27.0268 96.4108 25.5 129C26.1267 93.6334 20.8477 76.8638 0 53.0822L25.5 27Z" fill="#283618"/>
</svg>
