<svg width="200" height="100" viewBox="0 0 200 100" fill="none" xmlns="http://www.w3.org/2000/svg">
<path d="M74.536 53.08C79.3573 53.08 82.9627 52.056 85.352 50.008C87.784 47.9173 89 44.6533 89 40.216C89 35.352 88.1467 31.9173 86.44 29.912C84.776 27.864 82.1947 26.84 78.696 26.84H72.808V61.4C72.808 64.2587 73.0427 66.52 73.512 68.184C73.9813 69.848 74.9627 70.68 76.456 70.68V71H58.92V70.68C60.4133 70.68 61.3947 69.848 61.864 68.184C62.3333 66.52 62.568 64.2587 62.568 61.4V35.8C62.568 32.9413 62.3333 30.68 61.864 29.016C61.3947 27.352 60.4133 26.52 58.92 26.52V26.2H72.808H78.696C85.8213 26.2 91.0693 27.4373 94.44 29.912C97.8533 32.3867 99.56 35.8213 99.56 40.216C99.56 44.3973 97.4907 47.704 93.352 50.136C89.256 52.5253 82.984 53.72 74.536 53.72V53.08ZM119.378 72.024C115.453 72.024 112.147 71.2773 109.459 69.784C106.813 68.2907 104.829 66.264 103.507 63.704C102.184 61.1013 101.523 58.1787 101.523 54.936C101.523 51.6933 102.184 48.792 103.507 46.232C104.829 43.672 106.813 41.6453 109.459 40.152C112.147 38.6587 115.453 37.912 119.378 37.912C123.304 37.912 126.589 38.6587 129.235 40.152C131.923 41.6453 133.907 43.672 135.187 46.232C136.509 48.792 137.171 51.6933 137.171 54.936C137.171 58.1787 136.509 61.1013 135.187 63.704C133.907 66.264 131.923 68.2907 129.235 69.784C126.589 71.2773 123.304 72.024 119.378 72.024ZM119.378 71.384C121.939 71.384 123.773 70.04 124.883 67.352C126.035 64.6213 126.611 60.4827 126.611 54.936C126.611 49.432 126.035 45.336 124.883 42.648C123.773 39.9173 121.939 38.552 119.378 38.552C116.776 38.552 114.899 39.9173 113.747 42.648C112.637 45.336 112.083 49.432 112.083 54.936C112.083 60.44 112.637 64.5573 113.747 67.288C114.899 70.0187 116.776 71.384 119.378 71.384ZM156.03 26.2C158.803 26.2 160.979 26.3707 162.558 26.712C164.137 27.0533 165.417 27.7573 166.398 28.824C167.422 29.848 168.254 31.4053 168.894 33.496L170.302 38.104C171.881 34.2213 173.929 31.2773 176.446 29.272C179.006 27.224 182.483 26.2 186.878 26.2H197.63V26.52C196.393 26.52 195.177 27.3947 193.982 29.144C192.787 30.8507 191.699 33.3253 190.718 36.568L180.286 71H169.406L164.99 56.472L160.638 71H149.758L138.75 34.776C137.811 32.1307 136.787 30.104 135.678 28.696C134.569 27.2453 133.459 26.52 132.35 26.52V26.2H156.03ZM160.254 69.848L164.606 55.32L158.398 34.776C156.435 29.3147 154.174 26.5627 151.614 26.52C149.822 26.5627 148.926 27.7573 148.926 30.104C148.926 31.8107 149.331 33.9653 150.142 36.568L160.254 69.848ZM179.966 69.848L190.398 35.48C190.953 33.3893 191.23 31.7893 191.23 30.68C191.23 29.3573 190.889 28.3973 190.206 27.8C189.523 27.16 188.414 26.84 186.878 26.84C182.441 26.84 178.985 27.8853 176.51 29.976C174.078 32.0667 172.115 35.1173 170.622 39.128L179.966 69.848Z" fill="#283618"/>
<path d="M25 0L50 25.5708C29.7348 50.9719 26.4969 68.0498 25 100C25.6144 65.3269 20.4389 48.8861 0 25.5708L25 0Z" fill="#283618"/>
</svg>
